<?xml version="1.0" standalone="no"?>
<!DOCTYPE svg PUBLIC "-//W3C//DTD SVG 1.1//EN" "http://www.w3.org/Graphics/SVG/1.1/DTD/svg11.dtd">
<svg width="187.999999998916mm" height="1317.99999494213mm"
 viewBox="0 0 187.999999998916 1317.99999494213"
 xmlns="http://www.w3.org/2000/svg" version="1.1"
 xmlns:xlink="http://www.w3.org/1999/xlink">
<desc>Output from Flights of Ideas SVG Sketchup Plugin</desc>

  <path id="face0-cut"
 style="fill:none;stroke:#000000;stroke-width:1;stroke-miterlimit:4;stroke-dasharray:none;stroke-linejoin:round;stroke-linecap:round"
        d="M 10.0,88.0000003148571 L 18.5000000010472,88.0000003148571 L 18.5000000010469,85.9999987289198 L 17.2500000010469,85.9999987289198 L 17.2500000010469,83.9999987289198 L 18.5000000010469,83.9999987289198 L 18.5000000010469,80.9999987289198 L 21.5000000010471,80.9999987289198 L 21.5000000010471,83.9999987289198 L 22.7500000010469,83.9999987289198 L 22.7500000010469,85.9999987289198 L 21.5000000010471,85.9999987289198 L 21.5000000010472,88.0000003148571 L 30.000000022352,88.0000003148571 L 30.0000000223517,90.9999963007715 L 60.0000000223519,90.9999963007717 L 60.0000000223519,88.0000003148571 L 68.4999999855904,88.0000003148571 L 68.4999999855904,85.9999979490378 L 67.2499999855903,85.9999979490378 L 67.2499999855903,83.9999979490378 L 68.4999999855904,83.9999979490378 L 68.4999999855904,80.9999979490381 L 71.4999999855901,80.9999979490378 L 71.4999999855901,83.9999979490378 L 72.7499999855902,83.9999979490378 L 72.7499999855902,85.9999979490378 L 71.4999999855901,85.9999979490381 L 71.4999999855903,88.0000003148571 L 108.499999972259,88.0000003148571 L 108.499999972259,85.9999994985208 L 107.249999972259,85.999999498521 L 107.249999972259,83.9999994985212 L 108.499999972259,83.999999498521 L 108.499999972259,80.999999498521 L 111.499999972259,80.999999498521 L 111.499999972259,83.9999994985212 L 112.749999972259,83.9999994985205 L 112.749999972259,85.9999994985199 L 111.499999972259,85.9999994985199 L 111.499999972259,88.0000003148571 L 119.999999977648,88.0000003148571 L 119.999999977648,90.9999974891148 L 149.999999977648,90.9999974891152 L 149.999999977648,88.0000003148571 L 158.5,88.0000003148571 L 158.5,86.0000007508554 L 157.25,86.0000007508568 L 157.25,84.0000007508568 L 158.5,84.0000007508563 L 158.5,81.0000007508561 L 161.5,81.000000750857 L 161.5,84.0000007508561 L 162.75,84.0000007508563 L 162.75,86.0000007508556 L 161.5,86.0000007508559 L 161.5,88.0000003148571 L 169.999999977648,88.0000003148571 L 169.999999977648,10.0 L 149.999999977648,10.0 L 149.999999977648,13.0 L 126.499999992779,13.0000000017453 L 126.499999992779,15.0000000017451 L 127.749999992779,15.0000000017451 L 127.749999992779,17.0000000017453 L 126.499999992779,17.0000000017451 L 126.499999992779,20.0000000017451 L 123.499999992779,20.0000000017451 L 123.499999992779,17.0000000017451 L 122.249999992779,17.0000000017453 L 122.249999992779,15.0000000017451 L 123.499999992779,15.0000000017451 L 123.499999992779,12.9999999973456 L 99.9999999888239,13.0 L 99.9999999888239,10.0 L 79.9999999888239,10.0 L 79.9999999888241,13.0 L 56.5000000043652,12.999999993043 L 56.5000000043652,14.9999999989566 L 57.7500000043653,14.9999999989566 L 57.7500000043653,16.9999999989566 L 56.5000000043652,16.9999999989566 L 56.5000000043652,19.9999999989566 L 53.5000000043652,19.9999999989566 L 53.5000000043652,16.9999999989566 L 52.2500000043653,16.9999999989566 L 52.2500000043653,14.9999999989566 L 53.5000000043652,14.9999999989566 L 53.5000000043652,12.9999999989566 L 30.0,12.9999999999998 L 30.0,10.0 L 10.0,10.0 L 10.0,88.0000003148571 M 139.999999988824,53.0 L 139.999999988824,56.0 L 119.999999988824,56.0 L 119.999999988824,53.0 L 139.999999988824,53.0 M 39.9999999888241,56.0 L 39.9999999888241,53.0 L 59.9999999888241,53.0 L 59.9999999888241,56.0 L 39.9999999888241,56.0 M 91.2940952211061,77.8296284386042 L 89.9999999955934,77.999999307159 L 88.7059047700809,77.8296284386042 L 87.4999999955934,77.3301263260812 L 86.4644660896606,76.5355332130916 L 85.6698729766714,75.499999307159 L 85.1703708641481,74.2940945326716 L 84.9999999955936,72.999999307159 L 85.1703708641481,71.7059040816464 L 85.6698729766714,70.499999307159 L 86.4644660896606,69.4644654012261 L 87.4999999955936,68.6698722882368 L 88.7059047700809,68.1703701757135 L 89.9999999955936,67.999999307159 L 91.2940952211062,68.1703701757135 L 92.4999999955935,68.6698722882368 L 93.5355339015262,69.4644654012261 L 94.3301270145157,70.4999993071588 L 94.8296291270386,71.7059040816464 L 94.9999999955934,72.9999993071588 L 94.8296291270386,74.2940945326716 L 94.3301270145157,75.499999307159 L 93.5355339015262,76.5355332130916 L 92.4999999955935,77.3301263260812 L 91.2940952211061,77.8296284386042 "
  />
  <path id="face1-cut"
 style="fill:none;stroke:#000000;stroke-width:1;stroke-miterlimit:4;stroke-dasharray:none;stroke-linejoin:round;stroke-linecap:round"
        d="M 13.0000000026321,100.999997489115 L 13.0000000015481,128.999997503863 L 10.0000000015483,128.999997503747 L 10.0,168.999997503747 L 12.9999999999998,168.999997503863 L 12.9999999989161,196.999997518611 L 33.2499999989162,196.999997518612 L 33.2499999989162,193.999997479722 L 53.4999999989161,193.999997479722 L 53.4999999989161,196.999997627036 L 73.7499999989161,196.999997627036 L 73.7499999989161,193.999997479722 L 93.9999999989161,193.999997479722 L 114.249999998916,193.999997479722 L 134.499999998916,193.999997479722 L 134.499999998916,196.999997821016 L 154.749999998916,196.999997821016 L 154.749999998916,193.999997479722 L 174.999999998916,193.999997479722 L 174.999999998916,168.999997479722 L 177.999999998916,168.999997479722 L 177.999999998916,128.999997479722 L 174.999999998916,128.999997479722 L 174.999999998916,103.999997479724 L 154.749999998916,103.999997580055 L 154.749999991484,100.999997489115 L 134.499999991484,100.999997489115 L 134.499999998916,103.999997680388 L 114.249999998916,103.999997680388 L 93.9999999989161,103.999997680388 L 73.749999998916,103.999997630221 L 73.750000002632,100.999997489115 L 53.5000000026321,100.999997489115 L 53.4999999989161,103.999997580055 L 33.2499999989162,103.999997529888 L 33.250000002632,100.999997489115 L 13.0000000026321,100.999997489115 "
  />
  <path id="face2-cut"
 style="fill:none;stroke:#000000;stroke-width:1;stroke-miterlimit:4;stroke-dasharray:none;stroke-linejoin:round;stroke-linecap:round"
        d="M 175.999999986639,206.999997821016 L 10.0,206.999997821016 L 10.0,338.99999746043 L 175.999999986639,338.99999746043 L 175.999999986639,206.999997821016 M 172.999999977648,209.999997821017 L 172.999999977648,212.999997821017 L 152.999999977648,212.999997821017 L 152.999999977648,209.999997821017 L 172.999999977648,209.999997821017 M 102.999999988824,209.999997821017 L 102.999999988824,212.999997821017 L 82.9999999888241,212.999997821017 L 82.9999999888241,209.999997821016 L 102.999999988824,209.999997821017 M 16.0000000000001,212.999997821017 L 13.0000000000001,212.999997821017 L 13.0000000000001,209.999997821017 L 26.8311023797221,209.999997821017 L 26.8311023797221,212.999997821016 L 16.0000000000001,212.999997821017 M 30.1977477554386,277.421645472986 L 30.6113899229194,277.36718844853 L 31.0250320903999,277.421645472986 L 31.4104852277428,277.581305390133 L 31.7414813406293,277.835287640467 L 31.9954635909633,278.166283753354 L 32.15512350811,278.551736890697 L 32.2095805325663,278.965379058177 L 32.15512350811,279.379021225658 L 31.9954635909633,279.764474363001 L 31.7414813406293,280.095470475887 L 31.4104852277428,280.349452726221 L 31.0250320903999,280.509112643368 L 30.6113899229194,280.563569667824 L 30.1977477554386,280.509112643368 L 29.8122946180958,280.349452726221 L 29.4812985052092,280.095470475887 L 29.2273162548753,279.764474363001 L 29.0676563377286,279.379021225658 L 29.0131993132722,278.965379058177 L 29.0676563377286,278.551736890697 L 29.2273162548753,278.166283753354 L 29.4812985052092,277.835287640467 L 29.8122946180958,277.581305390133 L 30.1977477554386,277.421645472986 M 58.9334637129641,280.509112643368 L 58.5198215454835,280.563569667824 L 58.1061793780028,280.509112643368 L 57.7207262406601,280.349452726221 L 57.3897301277735,280.095470475887 L 57.1357478774394,279.764474363001 L 56.9760879602928,279.379021225658 L 56.9216309358365,278.965379058177 L 56.9760879602928,278.551736890697 L 57.1357478774394,278.166283753354 L 57.3897301277735,277.835287640467 L 57.7207262406601,277.581305390133 L 58.1061793780028,277.421645472986 L 58.5198215454835,277.36718844853 L 58.9334637129641,277.421645472986 L 59.318916850307,277.581305390133 L 59.6499129631936,277.835287640467 L 59.9038952135275,278.166283753354 L 60.0635551306742,278.551736890697 L 60.1180121551306,278.965379058177 L 60.0635551306742,279.379021225658 L 59.9038952135275,279.764474363001 L 59.6499129631936,280.095470475887 L 59.318916850307,280.349452726221 L 58.9334637129641,280.509112643368 M 74.1562420234346,229.766513108551 L 73.7425994861286,229.820970181696 L 73.3289569488227,229.766513108551 L 72.9435034668575,229.606853048657 L 72.6125070580372,229.352870571245 L 72.3585245806252,229.021874162424 L 72.1988645207313,228.636420680459 L 72.1444074475865,228.222778143154 L 72.1988645207313,227.809135605848 L 72.3585245806252,227.423682123883 L 72.6125070580372,227.092685715062 L 72.9435034668575,226.83870323765 L 73.3289569488227,226.679043177756 L 73.7425994861286,226.624586104611 L 74.1562420234346,226.679043177756 L 74.5416955053996,226.83870323765 L 74.87269191422,227.092685715062 L 75.1266743916321,227.423682123882 L 75.2863344515259,227.809135605848 L 75.3407915246707,228.222778143153 L 75.2863344515259,228.636420680459 L 75.1266743916321,229.021874162425 L 74.87269191422,229.352870571245 L 74.5416955053996,229.606853048657 L 74.1562420234346,229.766513108551 M 25.1234874370005,225.410477714305 L 25.5371299743064,225.35602064116 L 25.9507725116123,225.410477714305 L 26.3362259935774,225.570137774198 L 26.6672224023978,225.824120251611 L 26.9212048798099,226.155116660431 L 27.0808649397038,226.540570142396 L 27.1353220128485,226.954212679702 L 27.0808649397038,227.367855217008 L 26.9212048798099,227.753308698973 L 26.6672224023978,228.084305107793 L 26.3362259935774,228.338287585205 L 25.9507725116123,228.497947645099 L 25.5371299743064,228.552404718244 L 25.1234874370005,228.497947645099 L 24.7380339550355,228.338287585205 L 24.407037546215,228.084305107793 L 24.153055068803,227.753308698973 L 23.9933950089091,227.367855217008 L 23.9389379357643,226.954212679702 L 23.9933950089091,226.540570142396 L 24.153055068803,226.155116660431 L 24.407037546215,225.824120251611 L 24.7380339550355,225.570137774198 L 25.1234874370005,225.410477714305 M 122.611855017375,210.108938903048 L 123.000083585029,210.057827642482 L 123.388312152683,210.108938903048 L 123.750083585029,210.258789536805 L 124.060743756809,210.497167470702 L 124.299121690706,210.807827642482 L 124.448972324463,211.169599074828 L 124.500083585029,211.557827642482 L 124.448972324463,211.946056210135 L 124.299121690706,212.307827642481 L 124.060743756809,212.618487814261 L 123.750083585029,212.856865748158 L 123.388312152683,213.006716381915 L 123.000083585029,213.057827642481 L 122.611855017375,213.006716381915 L 122.250083585029,212.856865748158 L 121.939423413249,212.618487814261 L 121.701045479352,212.307827642482 L 121.551194845596,211.946056210135 L 121.500083585029,211.557827642482 L 121.551194845596,211.169599074828 L 121.701045479352,210.807827642482 L 121.939423413249,210.497167470702 L 122.250083585029,210.258789536805 L 122.611855017375,210.108938903048 M 59.4488887527899,334.111768899834 L 59.5000000133562,334.499997467488 L 59.4488887527899,334.888226035142 L 59.2990381190328,335.249997467488 L 59.060660185136,335.560657639267 L 58.7500000133562,335.799035573164 L 58.3882285810099,335.948886206921 L 58.0000000133562,335.999997467488 L 57.6117714457025,335.948886206921 L 57.2500000133562,335.799035573164 L 56.9393398415764,335.560657639267 L 56.7009619076796,335.249997467488 L 56.5511112739227,334.888226035142 L 56.5000000133562,334.499997467488 L 56.5511112739227,334.111768899834 L 56.7009619076796,333.749997467488 L 56.9393398415764,333.439337295708 L 57.2500000133562,333.200959361811 L 57.6117714457025,333.051108728054 L 58.0000000133562,332.999997467487 L 58.3882285810099,333.051108728054 L 58.7500000133563,333.200959361811 L 59.060660185136,333.439337295708 L 59.2990381190328,333.749997467488 L 59.4488887527899,334.111768899834 M 126.551111262747,334.888226035142 L 126.50000000218,334.499997467488 L 126.551111262747,334.111768899834 L 126.700961896504,333.749997467488 L 126.9393398304,333.439337295708 L 127.25000000218,333.200959361811 L 127.611771434527,333.051108728054 L 128.00000000218,332.999997467487 L 128.388228569834,333.051108728054 L 128.75000000218,333.200959361811 L 129.06066017396,333.439337295708 L 129.299038107857,333.749997467488 L 129.448888741614,334.111768899834 L 129.50000000218,334.499997467488 L 129.448888741614,334.888226035142 L 129.299038107857,335.249997467488 L 129.06066017396,335.560657639267 L 128.75000000218,335.799035573164 L 128.388228569834,335.948886206921 L 128.00000000218,335.999997467488 L 127.611771434527,335.948886206921 L 127.25000000218,335.799035573164 L 126.9393398304,335.560657639267 L 126.700961896504,335.249997467488 L 126.551111262747,334.888226035142 M 172.99999998611,332.999997463959 L 172.99999998611,335.999997463959 L 152.99999998611,335.999997463959 L 152.99999998611,332.999997463959 L 172.99999998611,332.999997463959 M 82.9999999972856,335.999997463959 L 82.9999999972856,332.999997463959 L 102.999999997286,332.999997463959 L 102.999999997286,335.999997463959 L 82.9999999972856,335.999997463959 M 13.0000000084616,332.999997463959 L 33.0000000084615,332.999997463959 L 33.0000000084615,335.999997463959 L 13.0000000084616,335.999997463959 L 13.0000000084616,332.999997463959 M 149.999999976958,224.499997401362 L 149.999999976958,227.499997401362 L 146.999999976958,227.499997396853 L 146.999999976958,224.499997401002 L 149.999999976958,224.499997401362 M 136.199999978115,227.499997401362 L 136.199999978115,224.499997401362 L 139.199999978115,224.499997398193 L 139.199999978115,227.499997396069 L 136.199999978115,227.499997401362 M 144.548888717571,225.611768831252 L 144.599999978077,225.999997398985 L 144.548888717431,226.3882259667 L 144.399038083582,226.749997399084 L 144.160660149587,227.060657570877 L 143.849999977708,227.299035504761 L 143.488228545269,227.44888613848 L 143.099999977537,227.499997398985 L 142.711771409822,227.44888613834 L 142.349999977438,227.299035504491 L 142.039339805645,227.060657570495 L 141.800961871761,226.749997398616 L 141.651111238042,226.388225966178 L 141.599999977537,225.999997398445 L 141.651111238182,225.611768830731 L 141.800961872031,225.249997398347 L 142.039339806027,224.939337226554 L 142.349999977905,224.70095929267 L 142.711771410344,224.551108658951 L 143.099999978077,224.499997398445 L 143.488228545791,224.551108659091 L 143.849999978175,224.70095929294 L 144.160660149968,224.939337226935 L 144.399038083852,225.249997398814 L 144.548888717571,225.611768831252 M 150.999999978109,212.999997815834 L 150.999999978109,222.999997815834 L 147.999999978109,222.999997815834 L 147.999999978109,212.999997815834 L 150.999999978109,212.999997815834 M 135.199999977418,212.999997812904 L 138.199999977418,212.999997812904 L 138.199999977418,222.999997812904 L 135.199999977418,222.999997812904 L 135.199999977418,212.999997812904 "
  />
  <path id="face3-cut"
 style="fill:none;stroke:#000000;stroke-width:1;stroke-miterlimit:4;stroke-dasharray:none;stroke-linejoin:round;stroke-linecap:round"
        d="M 131.999999949834,351.999997454856 L 129.0,351.999997454856 L 91.0000000000001,351.999997454856 L 91.0000000000001,348.99999746043 L 51.0,348.99999746043 L 51.0,351.999997454856 L 10.0,351.999997454856 L 10.0000000313537,493.749997464611 L 13.0000000033465,493.74999746043 L 16.0,493.74999746043 L 16.0,513.99999746043 L 51.0,513.99999746043 L 51.0,516.99999746043 L 91.0000000000001,516.99999746043 L 91.0000000000001,513.99999746043 L 126.0,513.99999746043 L 126.0,493.74999746043 L 132.000000005423,493.74999746043 L 131.999999949834,351.999997454856 M 16.0,392.49999746043 L 12.9999999749167,392.499997454856 L 13.0,372.24999746043 L 16.0,372.24999746043 L 16.0,392.49999746043 M 16.0,473.49999746043 L 13.0000000033465,473.49999746043 L 13.0,453.249997460431 L 16.0,453.24999746043 L 16.0,473.49999746043 M 129.0,372.24999746043 L 129.0,392.49999746043 L 126.0,392.49999746043 L 126.0,372.24999746043 L 129.0,372.24999746043 M 14.4999999940388,424.374997459037 L 14.1117714263746,424.323886198551 L 13.7499999939973,424.174035564868 L 13.4393398221682,423.935657631036 L 13.2009618882074,423.624997459305 L 13.0511112543758,423.26322602699 L 12.9999999937293,422.874997459347 L 13.0511112542155,422.486768891682 L 13.2009618878977,422.124997459305 L 13.4393398217304,421.814337287476 L 13.7499999934611,421.575959353515 L 14.1117714257764,421.426108719684 L 14.4999999934196,421.374997459037 L 14.888228561084,421.426108719523 L 15.249999993461,421.575959353205 L 15.5606601652901,421.814337287038 L 15.7990380992511,422.124997458769 L 15.9488887330828,422.486768891084 L 15.9999999937294,422.874997458727 L 15.9488887332429,423.263226026391 L 15.7990380995608,423.624997458769 L 15.560660165728,423.935657630598 L 15.2499999939973,424.174035564559 L 14.8882285616821,424.32388619839 L 14.4999999940388,424.374997459037 M 126.0,453.24999746043 L 129.000000012542,453.249997461359 L 129.0,473.49999746043 L 126.0,473.49999746043 L 126.0,453.24999746043 M 127.888228573925,424.323886200096 L 127.500000006271,424.374997460662 L 127.111771438617,424.323886200096 L 126.750000006271,424.174035566339 L 126.439339834491,423.935657632443 L 126.200961900594,423.624997460663 L 126.051111266837,423.263226028316 L 126.000000006271,422.874997460663 L 126.051111266837,422.486768893009 L 126.200961900594,422.124997460663 L 126.439339834491,421.814337288883 L 126.750000006271,421.575959354986 L 127.111771438617,421.426108721229 L 127.500000006271,421.374997460662 L 127.888228573925,421.426108721229 L 128.250000006271,421.575959354986 L 128.560660178051,421.814337288883 L 128.799038111948,422.124997460663 L 128.948888745704,422.486768893009 L 129.000000006271,422.874997460663 L 128.948888745704,423.263226028316 L 128.799038111948,423.624997460663 L 128.560660178051,423.935657632443 L 128.250000006271,424.174035566339 L 127.888228573925,424.323886200096 "
  />
  <path id="face4-cut"
 style="fill:none;stroke:#000000;stroke-width:1;stroke-miterlimit:4;stroke-dasharray:none;stroke-linejoin:round;stroke-linecap:round"
        d="M 90.0000000000001,652.999997099844 L 110.0,652.999997099844 L 110.0,526.99999746043 L 89.9999999910092,526.99999746043 L 89.9999999910092,529.999997460431 L 29.9999999910092,529.999997460431 L 29.9999999910092,526.99999746043 L 10.0,526.99999746043 L 10.0,652.999997099844 L 30.0,652.999997099844 L 30.0,649.999997099844 L 90.0000000000001,649.999997099844 L 90.0000000000001,652.999997099844 M 94.4377547093562,555.931849262017 L 93.9553927995613,555.732048417008 L 93.5411792371881,555.414211171812 L 93.2233419919922,554.999997609439 L 93.0235411469831,554.517635699644 L 92.9553927995612,553.999997609439 L 93.0235411469831,553.482359519234 L 93.2233419919922,552.999997609439 L 93.5411792371881,552.585784047066 L 93.9553927995613,552.26794680187 L 94.4377547093562,552.068145956861 L 94.9553927995612,551.999997609439 L 95.4730308897663,552.068145956861 L 95.9553927995614,552.26794680187 L 96.3696063619344,552.585784047066 L 96.6874436071301,552.999997609439 L 96.8872444521395,553.482359519234 L 96.9553927995613,553.999997609439 L 96.8872444521395,554.517635699644 L 96.6874436071301,554.999997609439 L 96.3696063619344,555.414211171812 L 95.9553927995614,555.732048417008 L 95.4730308897663,555.931849262017 L 94.9553927995612,555.999997609439 L 94.4377547093562,555.931849262017 M 96.8872444521395,626.517635699644 L 96.6874436071301,626.999997609439 L 96.3696063619344,627.414211171812 L 95.9553927995614,627.732048417008 L 95.4730308897663,627.931849262017 L 94.9553927995612,627.999997609439 L 94.4377547093562,627.931849262017 L 93.9553927995613,627.732048417008 L 93.5411792371881,627.414211171812 L 93.2233419919922,626.999997609439 L 93.0235411469831,626.517635699644 L 92.9553927995612,625.999997609439 L 93.0235411469831,625.482359519234 L 93.2233419919922,624.999997609439 L 93.5411792371881,624.585784047066 L 93.9553927995613,624.26794680187 L 94.4377547093562,624.068145956861 L 94.9553927995612,623.999997609439 L 95.4730308897663,624.068145956861 L 95.9553927995614,624.26794680187 L 96.3696063619344,624.585784047066 L 96.6874436071301,624.999997609439 L 96.8872444521395,625.482359519234 L 96.9553927995613,625.999997609439 L 96.8872444521395,626.517635699644 M 24.9553927995613,625.999997609439 L 24.8872444521395,626.517635699644 L 24.6874436071301,626.999997609439 L 24.3696063619344,627.414211171812 L 23.9553927995613,627.732048417008 L 23.4730308897663,627.931849262017 L 22.9553927995612,627.999997609439 L 22.4377547093561,627.931849262017 L 21.9553927995612,627.732048417008 L 21.5411792371882,627.414211171812 L 21.2233419919925,626.999997609439 L 21.0235411469831,626.517635699644 L 20.9553927995613,625.999997609439 L 21.0235411469831,625.482359519234 L 21.2233419919925,624.999997609439 L 21.5411792371882,624.585784047066 L 21.9553927995612,624.26794680187 L 22.4377547093561,624.068145956861 L 22.9553927995612,623.999997609439 L 23.4730308897663,624.068145956861 L 23.9553927995613,624.26794680187 L 24.3696063619344,624.585784047066 L 24.6874436071301,624.999997609439 L 24.8872444521395,625.482359519234 L 24.9553927995613,625.999997609439 M 22.9553927995612,555.999997609439 L 22.4377547093561,555.931849262017 L 21.9553927995612,555.732048417008 L 21.5411792371882,555.414211171812 L 21.2233419919925,554.999997609439 L 21.0235411469831,554.517635699644 L 20.9553927995613,553.999997609439 L 21.0235411469831,553.482359519234 L 21.2233419919925,552.999997609439 L 21.5411792371882,552.585784047066 L 21.9553927995612,552.26794680187 L 22.4377547093561,552.068145956861 L 22.9553927995612,551.999997609439 L 23.4730308897663,552.068145956861 L 23.9553927995613,552.26794680187 L 24.3696063619344,552.585784047066 L 24.6874436071301,552.999997609439 L 24.8872444521395,553.482359519234 L 24.9553927995613,553.999997609439 L 24.8872444521395,554.517635699644 L 24.6874436071301,554.999997609439 L 24.3696063619344,555.414211171812 L 23.9553927995613,555.732048417008 L 23.4730308897663,555.931849262017 L 22.9553927995612,555.999997609439 M 98.6370330515629,579.647235471131 L 100.0,589.999997275231 L 98.6370330515629,600.352759079332 L 94.6410161513776,609.999997275231 L 88.284271247462,618.284268522694 L 80.0,624.641013426609 L 70.3527618041009,628.637030326794 L 60.0,629.999997275231 L 49.6472381958993,628.637030326794 L 40.0000000000001,624.641013426609 L 31.7157287525382,618.284268522693 L 25.3589838486225,609.999997275231 L 21.3629669484372,600.352759079332 L 20.0000000000001,589.999997275231 L 21.3629669484372,579.647235471131 L 25.3589838486225,569.999997275231 L 31.7157287525382,561.71572602777 L 40.0000000000001,555.358981123854 L 49.6472381958993,551.362964223669 L 60.0,549.999997275232 L 70.3527618041009,551.362964223669 L 80.0,555.358981123854 L 88.284271247462,561.71572602777 L 94.6410161513776,569.999997275231 L 98.6370330515629,579.647235471131 "
  />
  <path id="face5-cut"
 style="fill:none;stroke:#000000;stroke-width:1;stroke-miterlimit:4;stroke-dasharray:none;stroke-linejoin:round;stroke-linecap:round"
        d="M 131.999999949834,665.99999709427 L 129.0,665.99999709427 L 91.0000000000001,665.99999709427 L 91.0000000000001,662.999997099844 L 51.0,662.999997099844 L 51.0,665.99999709427 L 10.0,665.99999709427 L 10.0000000313537,807.749997104025 L 13.0000000033464,807.749997099844 L 16.0,807.749997099844 L 16.0,827.999997099844 L 51.0,827.999997099844 L 51.0,830.999997099844 L 91.0000000000001,830.999997099844 L 91.0000000000001,827.999997099844 L 126.0,827.999997099844 L 126.0,807.749997099844 L 132.000000005423,807.749997099844 L 131.999999949834,665.99999709427 M 16.0,706.499997099844 L 12.9999999749167,706.49999709427 L 13.0,686.249997099844 L 16.0,686.249997099844 L 16.0,706.499997099844 M 16.0,787.499997099844 L 13.0000000033464,787.499997099844 L 13.0,767.249997099844 L 16.0,767.249997099844 L 16.0,787.499997099844 M 129.0,686.249997099844 L 129.0,706.499997099844 L 126.0,706.499997099844 L 126.0,686.249997099844 L 129.0,686.249997099844 M 14.4999999940388,738.374997098451 L 14.1117714263746,738.323885837965 L 13.7499999939973,738.174035204282 L 13.4393398221682,737.93565727045 L 13.2009618882074,737.624997098719 L 13.0511112543758,737.263225666404 L 12.9999999937293,736.874997098761 L 13.0511112542155,736.486768531096 L 13.2009618878977,736.124997098719 L 13.4393398217304,735.81433692689 L 13.7499999934611,735.575958992929 L 14.1117714257764,735.426108359098 L 14.4999999934196,735.374997098451 L 14.888228561084,735.426108358937 L 15.249999993461,735.575958992619 L 15.5606601652901,735.814336926452 L 15.7990380992511,736.124997098183 L 15.9488887330828,736.486768530498 L 15.9999999937294,736.874997098141 L 15.9488887332429,737.263225665806 L 15.7990380995608,737.624997098183 L 15.560660165728,737.935657270012 L 15.2499999939973,738.174035203973 L 14.8882285616821,738.323885837804 L 14.4999999940388,738.374997098451 M 126.0,767.249997099844 L 129.000000012542,767.249997100774 L 129.0,787.499997099844 L 126.0,787.499997099844 L 126.0,767.249997099844 M 127.888228573925,738.32388583951 L 127.500000006271,738.374997100077 L 127.111771438617,738.32388583951 L 126.750000006271,738.174035205753 L 126.439339834491,737.935657271856 L 126.200961900594,737.624997100077 L 126.051111266837,737.26322566773 L 126.000000006271,736.874997100077 L 126.051111266837,736.486768532423 L 126.200961900594,736.124997100077 L 126.439339834491,735.814336928297 L 126.750000006271,735.5759589944 L 127.111771438617,735.426108360643 L 127.500000006271,735.374997100077 L 127.888228573925,735.426108360643 L 128.250000006271,735.5759589944 L 128.560660178051,735.814336928297 L 128.799038111948,736.124997100077 L 128.948888745704,736.486768532423 L 129.000000006271,736.874997100077 L 128.948888745704,737.26322566773 L 128.799038111948,737.624997100077 L 128.560660178051,737.935657271856 L 128.250000006271,738.174035205753 L 127.888228573925,738.32388583951 "
  />
  <path id="face6-cut"
 style="fill:none;stroke:#000000;stroke-width:1;stroke-miterlimit:4;stroke-dasharray:none;stroke-linejoin:round;stroke-linecap:round"
        d="M 175.0,936.999997187467 L 174.999999998916,908.999997172718 L 177.999999998916,908.999997172602 L 177.999999997368,868.999997171818 L 174.999999997368,868.999997171935 L 174.999999996284,840.99999715797 L 154.749999996284,840.99999715797 L 154.75,843.999997148577 L 134.5,843.999997148577 L 134.499999996284,840.999997099844 L 114.249999996284,840.999997099844 L 114.25,843.999997148577 L 94.0,843.999997148577 L 73.7499999999999,843.999997439818 L 53.5000000000001,843.999997148577 L 53.5000000074319,840.999997262766 L 33.250000007432,840.999997262766 L 33.2499999999999,843.999997148577 L 13.0000000000001,843.999997148577 L 13.0000000000001,868.999997148577 L 10.0,868.999997148577 L 10.0,908.999997148577 L 12.9999999999998,908.999997148577 L 12.9999999999998,933.999997148578 L 33.2499999999999,933.999997148577 L 33.2499999999999,936.999997187467 L 53.5000000000001,936.999997187467 L 53.5000000000001,933.999997148577 L 73.7499999999999,933.999997148577 L 94.0,933.999997148577 L 114.25,933.999997148577 L 114.25,936.999997187467 L 134.5,936.999997187467 L 134.5,933.999997148577 L 154.75,933.999997148577 L 154.75,936.999997187467 L 175.0,936.999997187467 "
  />
  <path id="face7-cut"
 style="fill:none;stroke:#000000;stroke-width:1;stroke-miterlimit:4;stroke-dasharray:none;stroke-linejoin:round;stroke-linecap:round"
        d="M 23.7999999988429,962.999997205215 L 23.7999999975886,946.99999718795 L 20.7999999975887,946.999997188115 L 20.7999999977627,949.999997188111 L 18.3999999988813,949.999997188091 L 18.3999999977052,951.999997188091 L 19.6499999977052,951.999997188091 L 19.6499999977052,953.999997188091 L 18.3999999977052,953.999997188091 L 18.3999999977052,955.999997188091 L 18.3999999977052,956.999997188091 L 15.3999999977051,956.999997188091 L 15.3999999977051,953.999997188091 L 14.1499999977052,953.999997188091 L 14.1499999977052,951.999997188091 L 15.3999999977051,951.999997188091 L 15.3999999988815,949.999997188091 L 12.9999999989199,949.99999718982 L 13.0000000048969,946.999997189051 L 10.0000000048971,946.999997187467 L 10.0,962.999997205215 L 23.7999999988429,962.999997205215 "
  />
  <path id="face8-cut"
 style="fill:none;stroke:#000000;stroke-width:1;stroke-miterlimit:4;stroke-dasharray:none;stroke-linejoin:round;stroke-linecap:round"
        d="M 10.0,1074.99999720522 L 132.0,1074.99999720522 L 132.0,972.999997205215 L 10.0,972.999997205215 L 10.0,1074.99999720522 M 63.2354286469243,995.022222416543 L 71.0,993.999997205215 L 78.7645713530756,995.022222416543 L 86.0000000000001,998.019235091682 L 92.2132034355965,1002.78679376962 L 96.9807621135332,1008.99999720522 L 99.9777747886722,1016.23542585214 L 101.0,1023.99999720522 L 99.9777747886722,1031.76456855829 L 96.9807621135332,1038.99999720522 L 92.2132034355965,1045.21320064081 L 86.0000000000001,1049.98075931875 L 78.7645713530757,1052.97777199389 L 71.0,1053.99999720522 L 63.2354286469243,1052.97777199389 L 56.0,1049.98075931875 L 49.7867965644036,1045.21320064081 L 45.0192378864667,1038.99999720522 L 42.022225211328,1031.76456855829 L 41.0,1023.99999720522 L 42.022225211328,1016.23542585214 L 45.0192378864667,1008.99999720522 L 49.7867965644035,1002.78679376962 L 56.0,998.019235091682 L 63.2354286469243,995.022222416543 M 13.0000000000001,1043.99999720522 L 13.0000000000001,1003.99999720522 L 16.0000000000001,1003.99999720522 L 16.0000000000001,1043.99999720522 L 13.0000000000001,1043.99999720522 M 91.0,1071.99999760655 L 51.0000000000001,1071.99999760655 L 51.0000000000001,1068.99999760655 L 91.0,1068.99999760655 L 91.0,1071.99999760655 M 51.0000000000001,975.999997606546 L 91.0,975.999997606546 L 91.0,978.999997606546 L 51.0000000000001,978.999997606546 L 51.0000000000001,975.999997606546 M 129.0,1003.99999720522 L 129.0,1023.99999720522 L 129.0,1043.99999720522 L 126.0,1043.99999720522 L 126.0,1003.99999720522 L 129.0,1003.99999720522 "
  />
  <path id="face9-cut"
 style="fill:none;stroke:#000000;stroke-width:1;stroke-miterlimit:4;stroke-dasharray:none;stroke-linejoin:round;stroke-linecap:round"
        d="M 10.0,1165.99999530272 L 23.8311023836712,1165.99999530272 L 23.8311023836712,1159.00225513547 L 23.8311023836712,1144.99999530214 L 32.820936708544,1144.99999530214 L 32.820936708544,1162.99999530264 L 49.3255451073104,1162.99999530214 L 49.3255451073104,1144.99999530214 L 66.712701863271,1144.99999530214 L 66.712701863271,1162.99999530214 L 79.999999988824,1162.99999530272 L 79.999999988824,1165.99999530272 L 99.999999988824,1165.99999530272 L 99.999999988824,1162.99999530272 L 118.499999977558,1162.99999530234 L 118.499999977558,1160.99999530234 L 117.249999977558,1160.99999530234 L 117.249999977558,1158.99999530234 L 118.499999977558,1158.99999530234 L 118.499999977558,1155.99999530234 L 121.499999977558,1155.99999530234 L 121.499999977558,1158.99999530234 L 122.749999977558,1158.99999530234 L 122.749999977558,1160.99999530234 L 121.499999977558,1160.99999530234 L 121.499999977558,1162.99999530234 L 135.199999977418,1162.99999530264 L 135.199999977418,1151.99999530264 L 144.999999976958,1151.99999530264 L 144.999999976958,1162.99999530264 L 149.999999977648,1162.99999530272 L 149.999999977648,1165.99999530272 L 169.999999977648,1165.99999530272 L 169.999999977648,1087.99999498786 L 161.499999982018,1087.99999447578 L 161.499999982018,1089.99999447578 L 162.749999982018,1089.99999447578 L 162.749999982018,1091.99999447578 L 161.499999982018,1091.99999447578 L 161.499999982018,1094.99999447578 L 158.499999982018,1094.99999447578 L 158.499999982018,1091.99999447578 L 157.249999982018,1091.99999447578 L 157.249999982018,1089.99999447578 L 158.499999982018,1089.99999447578 L 158.499999982018,1087.99999549889 L 149.999999977648,1087.99999498786 L 149.999999977648,1084.99999720522 L 119.999999977648,1084.99999720522 L 119.999999977648,1087.99999498786 L 111.499999991008,1087.99999585742 L 111.499999991008,1089.99999585742 L 112.749999991008,1089.99999585742 L 112.749999991008,1091.99999585742 L 111.499999991008,1091.99999585742 L 111.499999991008,1094.99999585742 L 108.499999991008,1094.99999585742 L 108.499999991008,1091.99999585742 L 107.249999991008,1091.99999585742 L 107.249999991008,1089.99999585742 L 108.499999991008,1089.99999585742 L 108.499999991008,1087.9999946128 L 71.4999999910085,1087.99999737921 L 71.4999999910085,1089.99999737921 L 72.7499999910086,1089.99999737921 L 72.7499999910086,1091.99999737921 L 71.4999999910085,1091.99999737921 L 71.4999999910085,1094.99999737921 L 68.4999999910086,1094.99999737921 L 68.4999999910086,1091.99999737921 L 67.2499999910086,1091.99999737921 L 67.2499999910086,1089.99999737921 L 68.4999999910086,1089.99999737921 L 68.4999999910086,1087.99999628184 L 60.0000000223519,1087.99999781309 L 60.0000000223519,1084.99999850956 L 30.0000000223517,1084.99999850956 L 30.0000000223517,1087.99999781309 L 21.4999999910096,1087.99999610473 L 21.4999999910096,1089.9999966188 L 22.7499999910095,1089.9999966188 L 22.7499999910095,1091.9999966188 L 21.4999999910096,1091.9999966188 L 21.4999999910096,1094.9999966188 L 18.4999999910095,1094.9999966188 L 18.4999999910095,1091.9999966188 L 17.2499999910096,1091.9999966188 L 17.2499999910096,1089.9999966188 L 18.4999999910095,1089.9999966188 L 18.4999999910095,1087.9999966188 L 10.0,1087.99999498786 L 10.0,1165.99999530272 M 39.9999999888239,1122.99999530272 L 39.9999999888239,1119.99999530272 L 59.9999999888241,1119.99999530272 L 59.9999999888241,1122.99999530272 L 39.9999999888239,1122.99999530272 M 139.999999988824,1119.99999530272 L 139.999999988824,1122.99999530272 L 119.999999988824,1122.99999530272 L 119.999999988824,1119.99999530272 L 139.999999988824,1119.99999530272 M 85.7992167505646,1149.55832588722 L 85.7992167505646,1136.55832588722 L 104.599216750565,1136.55832588722 L 104.599216750565,1149.55832588722 L 85.7992167505646,1149.55832588722 "
  />
  <path id="face10-cut"
 style="fill:none;stroke:#000000;stroke-width:1;stroke-miterlimit:4;stroke-dasharray:none;stroke-linejoin:round;stroke-linecap:round"
        d="M 10.0,1175.99999530272 L 10.0,1307.99999494213 L 170.000000015513,1307.99999494213 L 170.000000015513,1175.99999530272 L 10.0,1175.99999530272 M 60.0000001023568,1301.99999494213 L 60.0000001023568,1304.99999494213 L 30.0000001023567,1304.99999494213 L 30.0000001023567,1301.99999494213 L 60.0000001023568,1301.99999494213 M 150.000000057653,1304.99999494213 L 120.000000057653,1304.99999494213 L 120.000000057653,1301.99999494213 L 150.000000057653,1301.99999494213 L 150.000000057653,1304.99999494213 M 120.000000048662,1181.99999530272 L 120.000000048662,1178.99999530272 L 150.000000048662,1178.99999530272 L 150.000000048662,1181.99999530272 L 120.000000048662,1181.99999530272 M 30.0000000933659,1178.99999530272 L 60.0000000933659,1178.99999530272 L 60.0000000933659,1181.99999530272 L 30.0000000933659,1181.99999530272 L 30.0000000933659,1178.99999530272 M 161.448888620772,1180.11176690898 L 161.499999856387,1180.49999547992 L 161.44888857087,1180.88822404429 L 161.299037913862,1181.249995467 L 161.06065996,1181.56065562346 L 160.7499997729,1181.79903353739 L 160.388228330923,1181.9488841479 L 159.999999759984,1181.99999538352 L 159.611771195615,1181.948884098 L 159.2499997729,1181.79903344099 L 158.93933961644,1181.56065548713 L 158.700961702509,1181.24999530003 L 158.551111092003,1180.88822385805 L 158.499999856387,1180.49999528711 L 158.551111141904,1180.11176672274 L 158.700961798912,1179.74999530003 L 158.939339752774,1179.43933514357 L 159.249999939874,1179.20095722964 L 159.611771381851,1179.05110661913 L 159.99999995279,1178.99999538351 L 160.388228517159,1179.05110666903 L 160.749999939874,1179.20095732604 L 161.060660096334,1179.4393352799 L 161.299038010265,1179.749995467 L 161.448888620772,1180.11176690898 M 111.448888938386,1180.11176670772 L 111.500000224969,1180.49999527195 L 111.448888990418,1180.88822384303 L 111.299038380904,1181.24999528541 L 111.060660467825,1181.56065547317 L 110.750000312019,1181.79903342788 L 110.388228889715,1181.94888408588 L 110.000000325486,1181.99999537246 L 109.611771754407,1181.94888413791 L 109.250000312019,1181.7990335284 L 108.939340124265,1181.56065561532 L 108.700962169551,1181.24999545951 L 108.551111511551,1180.88822403721 L 108.500000224969,1180.49999547298 L 108.551111459519,1180.1117669019 L 108.700962069033,1179.74999545951 L 108.939339982112,1179.43933527176 L 109.250000137918,1179.20095731705 L 109.611771560222,1179.05110665905 L 110.000000124451,1178.99999537246 L 110.38822869553,1179.05110660701 L 110.750000137918,1179.20095721653 L 111.060660325672,1179.43933512961 L 111.299038280387,1179.74999528541 L 111.448888938386,1180.11176670772 M 68.5511114751777,1180.88822396793 L 68.500000207093,1180.49999540126 L 68.551111460141,1180.11176683262 L 68.7009620868919,1179.74999539737 L 68.9393400147727,1179.43933522097 L 69.250000181936,1179.20095728106 L 69.6117716113803,1179.0511066403 L 70.0000001780442,1178.99999537221 L 70.3882287466878,1179.05110662526 L 70.750000181936,1179.20095725201 L 71.0606603583323,1179.43933517989 L 71.2990382982451,1179.74999534706 L 71.4488889390082,1180.1117667765 L 71.5000002070929,1180.49999534316 L 71.4488889540447,1180.88822391181 L 71.2990383272939,1181.24999534706 L 71.0606603994132,1181.56065552345 L 70.7500002322496,1181.79903346336 L 70.3882288028054,1181.94888410413 L 70.0000002361414,1181.99999537221 L 69.611771667498,1181.94888411916 L 69.2500002322498,1181.79903349241 L 68.9393400558536,1181.56065556453 L 68.7009621159406,1181.24999539737 L 68.5511114751777,1180.88822396793 M 18.5511111928864,1180.88822383035 L 18.4999999462476,1180.49999526086 L 18.5511112207414,1180.11176669504 L 18.7009618674767,1179.74999526807 L 18.9393398125184,1179.43933510484 L 19.2499999928499,1179.20095718209 L 19.6117714305719,1179.05110656131 L 20.0000000000592,1178.99999531467 L 20.3882285658796,1179.05110658916 L 20.7499999928499,1179.2009572359 L 21.0606601560779,1179.43933518094 L 21.29903807883,1179.74999536127 L 21.4488886996086,1180.11176679899 L 21.4999999462475,1180.49999536848 L 21.4488886717537,1180.8882239343 L 21.2990380250184,1181.24999536127 L 21.0606600799767,1181.5606555245 L 20.7499998996452,1181.79903344725 L 20.3882284619232,1181.94888406803 L 19.9999998924358,1181.99999531467 L 19.6117713266156,1181.94888404018 L 19.2499998996452,1181.79903339344 L 18.9393397364172,1181.5606554484 L 18.700961813665,1181.24999526807 L 18.5511111928864,1180.88822383035 M 31.9999999696938,1261.99999514809 L 31.9999999696938,1221.99999514809 L 34.999999980145,1221.99999514809 L 34.999999980145,1261.99999514809 L 31.9999999696938,1261.99999514809 M 110.000000006252,1196.99999514249 L 70.0000000062516,1196.99999514249 L 70.0000000062516,1193.99999514249 L 110.000000006252,1193.99999514249 L 110.000000006252,1196.99999514249 M 70.0000000062516,1286.99999514249 L 110.000000006252,1286.99999514249 L 110.000000006252,1289.99999514249 L 70.0000000062516,1289.99999514249 L 70.0000000062516,1286.99999514249 M 148.000000001215,1261.99999514651 L 144.999999990764,1261.99999514651 L 144.999999990764,1221.99999514651 L 148.000000001215,1221.99999514651 L 148.000000001215,1261.99999514651 M 37.999999980145,1211.99999514809 L 38.2385191961215,1210.18826183237 L 38.937822153654,1208.49999514809 L 40.0502525118393,1207.05024767978 L 41.4999999801452,1205.9378173216 L 43.1882666644274,1205.23851436406 L 45.0000000027715,1204.99999514095 L 62.8400974093202,1206.60452096205 L 82.1435935254663,1223.60769027848 L 70.1435935254664,1244.39229996931 L 45.7666688945133,1236.17656660909 L 38.937822153654,1215.49999514809 L 38.2385191961215,1213.81172846381 L 37.999999980145,1211.99999514809 M 18.5511112018773,1303.88822346976 L 18.4999999552385,1303.49999490027 L 18.5511112297323,1303.11176633445 L 18.7009618764678,1302.74999490748 L 18.9393398215092,1302.43933474425 L 19.2500000018408,1302.2009568215 L 19.6117714395627,1302.05110620072 L 20.0000000090502,1301.99999495408 L 20.3882285748704,1302.05110622858 L 20.7500000018408,1302.20095687531 L 21.0606601650688,1302.43933482035 L 21.2990380878209,1302.74999500069 L 21.4488887085995,1303.11176643841 L 21.4999999552385,1303.4999950079 L 21.4488886807445,1303.88822357372 L 21.2990380340093,1304.24999500069 L 21.0606600889677,1304.56065516391 L 20.7499999086363,1304.79903308667 L 20.3882284709142,1304.94888370744 L 19.9999999014269,1304.99999495408 L 19.6117713356066,1304.94888367959 L 19.2499999086363,1304.79903303285 L 18.939339745408,1304.56065508781 L 18.7009618226559,1304.24999490748 L 18.5511112018773,1303.88822346976 M 68.5511114841685,1303.88822360734 L 68.5000002160839,1303.49999504067 L 68.5511114691318,1303.11176647203 L 68.7009620958828,1302.74999503678 L 68.9393400237635,1302.43933486039 L 69.2500001909269,1302.20095692047 L 69.6117716203711,1302.05110627971 L 70.0000001870351,1301.99999501163 L 70.3882287556787,1302.05110626467 L 70.7500001909269,1302.20095689143 L 71.0606603673232,1302.43933481931 L 71.2990383072362,1302.74999498647 L 71.4488889479991,1303.11176641591 L 71.5000002160837,1303.49999498258 L 71.4488889630358,1303.88822355122 L 71.2990383362848,1304.24999498647 L 71.060660408404,1304.56065516287 L 70.7500002412407,1304.79903310278 L 70.3882288117965,1304.94888374354 L 70.0000002451325,1304.99999501163 L 69.6117716764888,1304.94888375858 L 69.2500002412406,1304.79903313183 L 68.9393400648445,1304.56065520395 L 68.7009621249314,1304.24999503678 L 68.5511114841685,1303.88822360734 M 108.551111520542,1303.88822367662 L 108.500000233959,1303.4999951124 L 108.55111146851,1303.11176654132 L 108.700962078024,1302.74999509893 L 108.939339991103,1302.43933491117 L 109.250000146909,1302.20095695646 L 109.611771569213,1302.05110629846 L 110.000000133442,1301.99999501188 L 110.388228704521,1302.05110624643 L 110.750000146909,1302.20095685594 L 111.060660334663,1302.43933476902 L 111.299038289377,1302.74999492483 L 111.448888947377,1303.11176634713 L 111.500000233959,1303.49999491136 L 111.448888999409,1303.88822348244 L 111.299038389895,1304.24999492483 L 111.060660476816,1304.56065511258 L 110.75000032101,1304.7990330673 L 110.388228898706,1304.9488837253 L 110.000000334477,1304.99999501188 L 109.611771763398,1304.94888377733 L 109.25000032101,1304.79903316781 L 108.939340133256,1304.56065525473 L 108.700962178542,1304.24999509893 L 108.551111520542,1303.88822367662 M 161.448888629762,1303.11176654839 L 161.499999865378,1303.49999511933 L 161.448888579861,1303.8882236837 L 161.299037922853,1304.24999510642 L 161.060659968991,1304.56065526288 L 160.749999781891,1304.79903317681 L 160.388228339914,1304.94888378731 L 159.999999768975,1304.99999502293 L 159.611771204606,1304.94888373741 L 159.249999781891,1304.79903308041 L 158.939339625431,1304.56065512654 L 158.7009617115,1304.24999493944 L 158.551111100994,1303.88822349747 L 158.499999865378,1303.49999492653 L 158.551111150895,1303.11176636216 L 158.700961807903,1302.74999493944 L 158.939339761765,1302.43933478298 L 159.249999948865,1302.20095686905 L 159.611771390842,1302.05110625855 L 159.999999961781,1301.99999502293 L 160.38822852615,1302.05110630845 L 160.749999948865,1302.20095696545 L 161.060660105325,1302.43933491932 L 161.299038019256,1302.74999510642 L 161.448888629762,1303.11176654839 "
  />
</svg>
